<svg xmlns="http://www.w3.org/2000/svg" xmlns:xlink="http://www.w3.org/1999/xlink" viewBox="0 0 2520 520"><filter id="t"><feGaussianBlur stdDeviation="2"/></filter><filter id="n"><feGaussianBlur stdDeviation="1"/></filter><path d="M1038.091 225.747c-61.1 0-110.807 49.707-110.807 110.807s49.707 110.807 110.807 110.807 110.807-49.708 110.807-110.807-49.707-110.807-110.807-110.807zm0 209.256c-54.285 0-98.45-44.165-98.45-98.45 0-54.284 44.165-98.449 98.45-98.449 54.284 0 98.449 44.165 98.449 98.449.001 54.285-44.165 98.45-98.449 98.45z"/><path d="M1501.444 225.747c-61.1 0-110.807 49.707-110.807 110.807s49.707 110.807 110.807 110.807 110.807-49.708 110.807-110.807-49.708-110.807-110.807-110.807zm0 209.256c-54.284 0-98.449-44.165-98.449-98.45 0-54.284 44.165-98.449 98.449-98.449s98.449 44.165 98.449 98.449c0 54.285-44.165 98.45-98.449 98.45z"/><polygon points="2274.309,324.396 2113.283,324.396 2113.283,231.726 2100.925,231.726 2100.925,441.382 2113.283,441.382 2113.283,336.754 2274.309,336.754 2274.309,441.382 2286.667,441.382 2286.667,231.726 2274.309,231.726"/><polygon points="1889.08,425.632 1889.08,231.726 1876.722,231.726 1876.722,441.382 1891.56,441.382 2050.106,245.59 2050.106,441.382 2062.463,441.382 2062.463,231.726 2046.099,231.726"/><path d="M2415.154 232.72l-.451-.994h-14.334l-95.296 209.656h12.788l31.251-68.755h116.849l31.251 68.755h12.788l-94.846-208.662zm45.188 127.549h-105.612l52.806-116.175 52.806 116.175z"/><polygon points="778.016,426.93 680.883,232.663 680.416,231.726 664.219,231.726 664.219,441.382 676.577,441.382 676.577,249.564 772.017,440.445 772.483,441.382 783.548,441.382 879.455,249.564 879.455,441.382 891.812,441.382 891.812,231.726 875.616,231.726"/><path d="M1299.662 231.726h-115.291v209.656h12.357v-92.67h102.934c32.252 0 58.492-26.24 58.492-58.493s-26.24-58.493-58.492-58.493zm0 104.628h-102.934v-92.271h102.934c25.438 0 46.135 20.696 46.135 46.135-.001 25.439-20.697 46.136-46.135 46.136z"/><path d="M1823.314 429.024v-197.298h-143.89v15.046h-.016l.01 1.696c.004.512.208 51.981-2.751 75.667-5.256 42.042-17.021 78.286-34.038 104.889h-22.992v63.177h12.357v-50.819h205.867v50.819h12.357l-.076-63.177h-26.828zm-131.533-168.126v-6.221c.005-1.993.004-3.578 0-4.665v-5.929h119.176v184.941h-153.853c15.98-27.456 26.683-62.209 31.823-103.356 2.188-17.512 2.711-47.757 2.826-64.77h.028z"/><path d="M611.141 374.591c-15.388 36.699-51.04 60.413-90.824 60.413-54.285 0-98.449-44.165-98.449-98.45 0-54.284 44.165-98.449 98.449-98.449 37.616 0 72.46 21.918 88.773 55.838l.461.96h13.49l-1.027-2.369c-17.586-40.571-57.504-66.787-101.697-66.787-61.1 0-110.807 49.707-110.807 110.807s49.707 110.807 110.807 110.807c45.743 0 87.381-28.739 103.612-71.513l.87-2.296h-13.221l-.437 1.039z"/><defs><path id="a" d="M179.881 164.583c93.827 0 169.886 76.062 169.886 169.885 0 93.829-76.06 169.888-169.886 169.888-93.822 0-169.881-76.059-169.881-169.888 0-93.823 76.059-169.885 169.881-169.885z"/></defs><clipPath id="b"><use xlink:href="#a" overflow="visible"/></clipPath><g clip-path="url(#b)"><radialGradient id="c" cx="415.797" cy="1871.529" r="206.092" gradientTransform="matrix(.901 -.433 -.377 -.784 489.906 2052.718)" gradientUnits="userSpaceOnUse"><stop offset="0" stop-color="#A51ABF" stop-opacity=".9"/><stop offset=".541" stop-color="#8F16B5" stop-opacity=".972"/><stop offset=".748" stop-color="#8514B0"/><stop offset="1" stop-color="#691085"/></radialGradient><path fill="url(#c)" d="M179.881 164.583c93.827 0 169.886 76.062 169.886 169.885 0 93.829-76.06 169.888-169.886 169.888-93.822 0-169.881-76.059-169.881-169.888 0-93.823 76.059-169.885 169.881-169.885z"/><radialGradient id="d" cx="456.398" cy="1796.728" r="168.476" gradientTransform="matrix(.901 -.433 -.436 -.909 554.785 2166.124)" gradientUnits="userSpaceOnUse"><stop offset="0" stop-color="#A51ABF" stop-opacity="0"/><stop offset=".498" stop-color="#A31ABD" stop-opacity=".498"/><stop offset=".678" stop-color="#9C19B7" stop-opacity=".678"/><stop offset=".806" stop-color="#9117AB" stop-opacity=".806"/><stop offset=".908" stop-color="#80149B" stop-opacity=".908"/><stop offset=".996" stop-color="#6A1086" stop-opacity=".996"/><stop offset="1" stop-color="#691085"/></radialGradient><path fill="url(#d)" d="M179.881 164.583c93.827 0 169.886 76.062 169.886 169.885 0 93.829-76.06 169.888-169.886 169.888-93.822 0-169.881-76.059-169.881-169.888 0-93.823 76.059-169.885 169.881-169.885z"/></g><defs><path id="e" d="M179.881 164.583c93.827 0 169.886 76.062 169.886 169.885 0 93.829-76.06 169.888-169.886 169.888-93.822 0-169.881-76.059-169.881-169.888 0-93.823 76.059-169.885 169.881-169.885z"/></defs><clipPath id="f"><use xlink:href="#e" overflow="visible"/></clipPath><radialGradient id="g" cx="427.363" cy="1113.467" r="139.619" gradientTransform="matrix(1.312 .332 .205 -.81 -581.532 955.33)" gradientUnits="userSpaceOnUse"><stop offset="0" stop-color="#fff"/><stop offset=".111" stop-color="#F0E3F7" stop-opacity=".889"/><stop offset=".326" stop-color="#D7B1E8" stop-opacity=".674"/><stop offset=".53" stop-color="#C28ADD" stop-opacity=".47"/><stop offset=".716" stop-color="#B46ED5" stop-opacity=".284"/><stop offset=".879" stop-color="#AB5DD0" stop-opacity=".121"/><stop offset="1" stop-color="#A857CE" stop-opacity="0"/></radialGradient><path opacity=".3" clip-path="url(#f)" fill="url(#g)" enable-background="new" d="M390.619 241.884c-15.786 62.448-110.636 92.31-211.833 66.708-101.203-25.593-170.439-96.97-154.648-159.418 15.793-62.44 110.637-92.304 211.841-66.704 101.202 25.607 170.434 96.971 154.64 159.414z"/><defs><path id="h" d="M179.881 164.583c93.827 0 169.886 76.062 169.886 169.885 0 93.829-76.06 169.888-169.886 169.888-93.822 0-169.881-76.059-169.881-169.888 0-93.823 76.059-169.885 169.881-169.885z"/></defs><clipPath id="i"><use xlink:href="#h" overflow="visible"/></clipPath><radialGradient id="j" cx="111.164" cy="1286.721" r="64.001" gradientTransform="matrix(.709 .125 .114 -.646 65.457 1047.797)" gradientUnits="userSpaceOnUse"><stop offset="0" stop-color="#fff"/><stop offset="1" stop-color="#F2D4FF" stop-opacity="0"/></radialGradient><path opacity=".3" clip-path="url(#i)" fill="url(#j)" enable-background="new" d="M336.409 238.355c-4.028 22.847-27.604 37.771-52.657 33.352-25.048-4.415-42.081-26.519-38.052-49.362 4.03-22.838 27.601-37.766 52.655-33.346 25.047 4.428 42.09 26.519 38.054 49.356z"/><defs><path id="k" d="M179.881 164.583c93.827 0 169.886 76.062 169.886 169.885 0 93.829-76.06 169.888-169.886 169.888-93.822 0-169.881-76.059-169.881-169.888 0-93.823 76.059-169.885 169.881-169.885z"/></defs><clipPath id="l"><use xlink:href="#k" overflow="visible"/></clipPath><radialGradient id="m" cx="-86.679" cy="1283.838" r="63.999" gradientTransform="matrix(.762 .135 .115 -.652 21.515 1045.454)" gradientUnits="userSpaceOnUse"><stop offset="0" stop-color="#fff"/><stop offset="1" stop-color="#F2D4FF" stop-opacity="0"/></radialGradient><path opacity=".3" clip-path="url(#l)" fill="url(#m)" enable-background="new" d="M152.13 204.821c-4.066 23.062-29.209 37.896-56.156 33.14-26.935-4.758-45.481-27.307-41.412-50.365 4.07-23.06 29.214-37.894 56.155-33.136 26.944 4.753 45.484 27.3 41.413 50.361z"/><g opacity=".7" filter="url(#n)"><radialGradient id="o" cx="1853.566" cy="21.252" r="67.739" gradientTransform="matrix(-.226 .974 3.868 .912 573.638 -1548.648)" gradientUnits="userSpaceOnUse"><stop offset="0" stop-color="#fff"/><stop offset=".347" stop-color="#E2C8EF" stop-opacity=".687"/><stop offset="1" stop-color="#A857CE" stop-opacity=".1"/></radialGradient><path fill="url(#o)" d="M317.781 269.303c-5.432 5.331-11.258 7.927-18.761 7.16-8.487-.867-20.492-1.829-42.284-24.44-12.553 5.234-24.777 9.18-42.058 8.392-35.109-1.594-60.872-14.402-79.346-30.117-11.252 7.309-11.252 7.309-21.286 9.485 11.892 29.727 35.017 46.913 77.435 64.877 58.352 24.719 117.574 16.618 132.266-18.08-3.444-5.115-5.258-9.863-5.966-17.277z"/></g><radialGradient id="p" cx="596.083" cy="2005.13" r="58.234" gradientTransform="matrix(.901 -.433 -.377 -.784 516.712 2060.243)" gradientUnits="userSpaceOnUse"><stop offset="0" stop-color="#A51ABF" stop-opacity=".9"/><stop offset=".541" stop-color="#8F16B5" stop-opacity=".972"/><stop offset=".748" stop-color="#8514B0"/><stop offset="1" stop-color="#731190"/></radialGradient><path fill="url(#p)" d="M304.742 161.607c26.512 0 47.999 21.494 47.999 48.002 0 26.516-21.487 48.006-47.999 48.006-26.515 0-48.005-21.49-48.005-48.006-.001-26.508 21.49-48.002 48.005-48.002z"/><g filter="url(#n)"><linearGradient id="q" gradientUnits="userSpaceOnUse" x1="341.079" y1="1322.761" x2="320.296" y2="1276.058" gradientTransform="matrix(1 0 0 -1 -20.41 1493.62)"><stop offset="0" stop-color="#fff"/><stop offset=".347" stop-color="#E2C8EF" stop-opacity=".687"/><stop offset="1" stop-color="#A857CE" stop-opacity=".1"/></linearGradient><path fill="url(#q)" d="M342.755 200.96c-4.15 9.803-20.883 12.093-37.372 5.107-16.489-6.98-26.49-20.595-22.335-30.4 4.157-9.806 20.885-12.095 37.377-5.109 16.492 6.984 26.484 20.597 22.33 30.402z"/></g><path fill="#fff" d="M319.818 172.092c-16.081-6.059-32.403-4.074-36.455 4.435l-.079.192c5.479-6.831 20.447-8.059 35.219-2.492 15.961 6.016 25.681 17.691 21.864 26.184.487-.607.905-1.251 1.235-1.941 4.05-8.509-5.703-20.316-21.784-26.378z" filter="url(#n)"/><radialGradient id="r" cx="524.839" cy="2106.308" r="130.362" gradientTransform="matrix(.901 -.433 -.377 -.784 522.054 2041.226)" gradientUnits="userSpaceOnUse"><stop offset="0" stop-color="#A51ABF" stop-opacity=".95"/><stop offset=".541" stop-color="#8F16B5" stop-opacity=".986"/><stop offset=".748" stop-color="#8514B0"/><stop offset="1" stop-color="#731199"/></radialGradient><path fill="url(#r)" d="M214.684 10c59.342 0 107.452 48.11 107.452 107.46 0 59.345-48.11 107.458-107.452 107.458-59.351 0-107.46-48.113-107.46-107.458 0-59.35 48.109-107.46 107.46-107.46z"/><radialGradient id="s" cx="418.243" cy="2103.743" r="58.233" gradientTransform="matrix(.901 -.433 -.377 -.784 514.115 2028.814)" gradientUnits="userSpaceOnUse"><stop offset="0" stop-color="#A51ABF" stop-opacity=".9"/><stop offset=".541" stop-color="#8F16B5" stop-opacity=".972"/><stop offset=".748" stop-color="#8514B0"/><stop offset="1" stop-color="#731190"/></radialGradient><path fill="url(#s)" d="M104.688 129.787c26.513 0 48.002 21.493 48.002 48.005s-21.489 48.004-48.002 48.004c-26.514 0-48.002-21.492-48.002-48.004s21.488-48.005 48.002-48.005z"/><path fill="#fff" d="M140.888 234.752s32.879 30.106 78.008 32.575c21.848 1.197 37.897-12.124 37.897-12.124s6.436 11.251 16.795 17.064c20.247 11.356 44.192 2.286 44.192 2.286s1.566 9.4 1.566 15.653c-11.689 11.084-35.388 14.458-68.966 13.169-54.844-2.111-101.223-31.604-129.861-62.711 12.512-6.254 20.369-5.912 20.369-5.912z" opacity=".2" filter="url(#t)"/><path fill="#fff" d="M140.888 234.752s32.879 30.106 78.008 32.575c21.848 1.197 37.897-12.124 37.897-12.124s6.436 11.251 16.795 17.064c20.247 11.356 44.192 2.286 44.192 2.286s-30.434 20.18-76.974 11.471c-84.437-15.801-99.918-51.272-99.918-51.272z" opacity=".5" filter="url(#t)"/><g filter="url(#n)"><linearGradient id="u" gradientUnits="userSpaceOnUse" x1="139.932" y1="1353.487" x2="119.148" y2="1306.781" gradientTransform="matrix(1 0 0 -1 -20.41 1493.62)"><stop offset="0" stop-color="#fff"/><stop offset=".347" stop-color="#E2C8EF" stop-opacity=".687"/><stop offset="1" stop-color="#A857CE" stop-opacity=".1"/></linearGradient><path fill="url(#u)" d="M141.61 170.231c-4.153 9.805-20.886 12.095-37.373 5.11-16.488-6.981-26.487-20.596-22.338-30.402 4.16-9.804 20.885-12.093 37.377-5.108 16.49 6.986 26.484 20.597 22.334 30.4z"/></g><path fill="#fff" d="M118.965 139.292c-16.084-6.057-32.403-4.069-36.457 4.435l-.082.194c5.482-6.83 20.45-8.058 35.222-2.493 15.961 6.017 25.681 17.692 21.865 26.185.486-.607.905-1.252 1.233-1.943 4.054-8.507-5.7-20.316-21.781-26.378z" filter="url(#n)"/><g filter="url(#n)"><linearGradient id="v" gradientUnits="userSpaceOnUse" x1="274.363" y1="1468.395" x2="228.482" y2="1365.286" gradientTransform="matrix(1 0 0 -1 -20.41 1493.62)"><stop offset="0" stop-color="#fff"/><stop offset=".347" stop-color="#E2C8EF" stop-opacity=".687"/><stop offset="1" stop-color="#A857CE" stop-opacity=".1"/></linearGradient><path fill="url(#v)" d="M302.716 91.671c-9.169 21.644-46.113 26.695-82.51 11.279-36.404-15.421-58.479-45.468-49.306-67.114 9.17-21.646 46.112-26.7 82.509-11.282 36.4 15.424 58.476 45.47 49.307 67.117z"/></g><path fill="#fff" d="M252.462 26.921c-36.398-15.42-73.336-10.368-82.508 11.28l-.187.493c12.402-17.386 51.848-13.548 79.577-1.378 20.244 8.888 58.27 40.053 49.634 61.661 1.099-1.542 2.045-3.182 2.79-4.941 9.169-21.644-12.908-51.697-49.306-67.115z" filter="url(#n)"/></svg>