<?xml version="1.0" encoding="utf-8"?>
<!-- Generator: Adobe Illustrator 16.0.4, SVG Export Plug-In . SVG Version: 6.00 Build 0)  -->
<!DOCTYPE svg PUBLIC "-//W3C//DTD SVG 1.1//EN" "http://www.w3.org/Graphics/SVG/1.1/DTD/svg11.dtd">
<svg version="1.1" xmlns="http://www.w3.org/2000/svg" xmlns:xlink="http://www.w3.org/1999/xlink" x="0px" y="0px"
	 width="755.696px" height="250.633px" viewBox="0 0 755.696 250.633" enable-background="new 0 0 755.696 250.633"
	 xml:space="preserve">
<filter  id="AI_GaussianBlur_1">
	<feGaussianBlur  stdDeviation="1"></feGaussianBlur>
</filter>
<g id="Layer_5">
	<polygon stroke="#000000" stroke-width="1.1339" stroke-miterlimit="10" points="671.479,86.359 671.479,117.359 616.479,117.359 
		616.479,86.359 613.479,86.359 613.479,155.359 616.479,155.359 616.479,120.359 671.479,120.359 671.479,155.359 674.479,155.359 
		674.479,86.359 	"/>
	<polygon stroke="#000000" stroke-width="1.1339" stroke-miterlimit="10" points="598.479,86.359 596.479,86.359 594.843,86.359 
		541.479,152.258 541.479,86.359 538.479,86.359 538.479,155.359 538.968,155.359 541.479,155.359 542.604,155.359 596.479,88.829 
		596.479,155.359 599.479,155.359 599.479,86.359 	"/>
	<path stroke="#000000" stroke-width="1.1339" stroke-miterlimit="10" d="M745.843,155.359h3.031l-31.363-69h-1.031h-2h-1.033
		l-31.363,69h3.033l10.453-23h39.818L745.843,155.359z M696.935,129.359l18.545-40.8l18.545,40.8H696.935z"/>
	<polygon stroke="#000000" stroke-width="1.1339" stroke-miterlimit="10" points="194.374,86.359 192.875,86.359 191.374,86.359 
		158.375,152.359 125.375,86.359 123.875,86.359 122.375,86.359 120.875,86.359 120.875,155.359 123.875,155.359 123.875,89.358 
		156.875,155.359 159.875,155.359 192.875,89.358 192.875,155.359 195.875,155.359 195.875,86.359 	"/>
	<path stroke="#000000" stroke-width="1.1339" stroke-miterlimit="10" d="M123.875,86.359"/>
	<path stroke="#000000" stroke-width="1.1339" stroke-miterlimit="10" d="M350.875,86.359h-35h-3v3v32v3v31h3v-31h35
		c10.492,0,19-8.506,19-19S361.367,86.359,350.875,86.359z M350.875,121.359h-35v-32h35c8.836,0,16,7.163,16,16
		S359.71,121.359,350.875,121.359z"/>
	<path stroke="#000000" stroke-width="1.1339" stroke-miterlimit="10" d="M528.849,153.359v-1h-8.975v-63v-3h-3h-43.975v1h-0.025
		v4.03h-0.002c0.002,0.173,0.074,17.395-0.924,25.386c-1.793,14.335-5.811,26.59-11.641,35.584h-7.434v1v2v17h3v-17h70v17h3v-19
		H528.849z M516.874,152.359h-53.027c5.582-9.24,9.309-21.058,11.078-35.212c0.926-7.415,0.955-21.961,0.949-25.163l0,0v-2.625h41
		V152.359z"/>
	<path stroke="#000000" stroke-width="1.1339" stroke-miterlimit="10" d="M416.406,84.349c-20.158,0-36.5,16.342-36.5,36.5
		s16.342,36.5,36.5,36.5s36.5-16.342,36.5-36.5S436.564,84.349,416.406,84.349z M416.406,154.349c-18.501,0-33.5-14.999-33.5-33.5
		s14.999-33.5,33.5-33.5s33.5,14.999,33.5,33.5S434.907,154.349,416.406,154.349z"/>
	<path stroke="#000000" stroke-width="1.1339" stroke-miterlimit="10" d="M103.292,133.792
		c-5.063,12.074-16.993,20.557-30.905,20.557c-18.501,0-33.5-14.999-33.5-33.5s14.999-33.5,33.5-33.5
		c13.307,0,24.801,7.76,30.207,19h3.292c-5.61-12.943-18.495-22-33.5-22c-20.158,0-36.5,16.342-36.5,36.5s16.342,36.5,36.5,36.5
		c15.599,0,28.906-9.789,34.13-23.557H103.292z"/>
</g>
<g id="Layer_1">
	<g id="Layer_3_1_">
		<g>
			
				<radialGradient id="SVGID_1_" cx="135.8647" cy="-21.8652" r="57.882" gradientTransform="matrix(0.9015 -0.4327 -0.3765 -0.7844 116.8748 177.536)" gradientUnits="userSpaceOnUse">
				<stop  offset="0" style="stop-color:#A51ABF;stop-opacity:0.95"/>
				<stop  offset="0.5407" style="stop-color:#8F16B5;stop-opacity:0.9861"/>
				<stop  offset="0.7484" style="stop-color:#8514B0"/>
				<stop  offset="1" style="stop-color:#731199"/>
			</radialGradient>
			<circle fill="url(#SVGID_1_)" cx="253.144" cy="116.151" r="47.713"/>
			<g filter="url(#AI_GaussianBlur_1)">
				
					<linearGradient id="SVGID_2_" gradientUnits="userSpaceOnUse" x1="292.7666" y1="136.4653" x2="272.3938" y2="90.6822" gradientTransform="matrix(1 0 0 -1 -20.4102 209.4434)">
					<stop  offset="0" style="stop-color:#FFFFFF"/>
					<stop  offset="0.3473" style="stop-color:#E2C8EF;stop-opacity:0.6874"/>
					<stop  offset="1" style="stop-color:#A857CE;stop-opacity:0.1"/>
				</linearGradient>
				<path fill="url(#SVGID_2_)" d="M294.006,102.481c-4.071,9.609-20.474,11.852-36.634,5.009
					c-16.161-6.848-25.965-20.188-21.893-29.799c4.071-9.611,20.474-11.855,36.635-5.011
					C288.275,79.529,298.076,92.871,294.006,102.481z"/>
			</g>
		</g>
	</g>
</g>
</svg>
