<?xml version="1.0" encoding="utf-8"?>
<!-- Generator: Adobe Illustrator 16.0.0, SVG Export Plug-In . SVG Version: 6.00 Build 0)  -->
<!DOCTYPE svg PUBLIC "-//W3C//DTD SVG 1.1//EN" "http://www.w3.org/Graphics/SVG/1.1/DTD/svg11.dtd">
<svg version="1.1" xmlns="http://www.w3.org/2000/svg" xmlns:xlink="http://www.w3.org/1999/xlink" x="0px" y="0px" width="2700px"
	 height="2600px" viewBox="0 0 2700 2600" enable-background="new 0 0 2700 2600" xml:space="preserve">
<g id="Layer_5">
	<path display="none" fill="#231F20" d="M2186.948,1527c0,0,13-11,13-57.375h3c0,46.375-12,57.375-12,57.375H2186.948z"/>
	<path display="none" fill="#231F20" d="M2187.948,1527c0,0,4-6,7-15s5-25,5-36c0-6,0-6.375,0-6.375h3c0,0,0,0.375,0,6.375
		c0,9-1,23-5,36c-3.442,11.188-7,15-7,15H2187.948z"/>
</g>
<g id="Layer_1">
</g>
<g id="Isolation_Mode">
</g>
<g id="Layer_4_3_">
</g>
<g id="Layer_6">
	<linearGradient id="SVGID_1_" gradientUnits="userSpaceOnUse" x1="1350" y1="2600" x2="1349.9999" y2="1072">
		<stop  offset="0" style="stop-color:#C7CFD4"/>
		<stop  offset="1" style="stop-color:#F0F3FC"/>
	</linearGradient>
	<path fill-rule="evenodd" clip-rule="evenodd" fill="url(#SVGID_1_)" d="M300,1072h2100l300,1528H0L300,1072z"/>
	<path fill-rule="evenodd" clip-rule="evenodd" fill="#FFFFFF" d="M379.101,1174h1941.797l230.371,1324H148.73L379.101,1174z"/>
	<path fill-rule="evenodd" clip-rule="evenodd" fill="#C4DF9B" d="M2213.916,1316.989l176.367,1078.306h-864.258l-25.098-765.499
		l-1095.02-312.807H2213.916z"/>
	<path fill-rule="evenodd" clip-rule="evenodd" fill="#DCD2C7" d="M1271.728,1739.935l-9.082,655.36H722.46H290.283l136.67-937.324
		L1271.728,1739.935z"/>
	<g>
		<linearGradient id="SVGID_2_" gradientUnits="userSpaceOnUse" x1="1427.6606" y1="1889.2734" x2="1427.6605" y2="36.6138">
			<stop  offset="0" style="stop-color:#A27DE7"/>
			<stop  offset="1" style="stop-color:#B69AE7"/>
		</linearGradient>
		<path fill="url(#SVGID_2_)" d="M1850.048,213.512C1732.373,94.618,1594.238,36.613,1427.734,36.613
			s-304.639,58.004-422.363,176.899C887.841,332.506,830.615,472.293,830.615,640.337c0,84.967,12.402,155.01,37.061,208.338
			l454.346,974.634c9.326,20.396,23.145,36.216,42.334,48.055c19.971,12.238,40.576,17.909,63.379,17.909
			c22.656,0,43.457-5.671,63.232-17.909c19.629-11.839,33.838-27.857,43.701-48.453l452.93-974.235
			c24.756-53.328,37.109-123.372,37.109-208.338C2024.707,472.293,1967.626,332.506,1850.048,213.512z M1716.894,933.643
			c-79.59,80.59-176.807,121.382-289.16,121.382c-112.695,0-209.619-40.792-289.209-121.382
			c-79.59-80.688-119.727-179.386-119.727-293.305c0-113.621,40.137-212.517,119.727-292.908
			c79.59-80.589,176.514-121.183,289.209-121.183c112.354,0,209.57,40.593,289.16,121.183
			c79.492,80.391,119.971,179.287,119.971,292.908C1836.865,754.257,1796.386,852.954,1716.894,933.643z"/>
		<path fill="#FFFFFF" d="M977.148,504.43c124.463-150.135,274.658-225.252,450.586-225.252s326.025,75.118,450.635,225.252
			c91.602,110.438,99.072,237.888,123.291,381.556c8.789-48.751,46.826-101.085,46.826-162.472
			c0-212.716-62.891-366.134-187.305-516.767C1736.718,56.711,1615.82,50.642,1437.646,36.613
			c-175.293-14.028-254.443,22.983-413.232,141.38C868.408,294.102,812.548,508.608,812.548,721.424
			c0,61.586,29.883,115.811,38.77,164.562C875.39,742.317,885.595,614.867,977.148,504.43z"/>
		<path opacity="0.5" fill="#FFFFFF" d="M1669.824,1231.127c66.895-51.14,100.293-113.223,100.293-186.45
			c0-40.692-11.035-78.002-32.178-112.327c-16.211,26.365-38.77,51.04-68.115,74.022c-66.943,51.239-147.559,76.809-242.09,76.809
			c-94.58,0-175.244-25.569-242.041-76.809c-29.395-22.982-51.904-47.657-68.311-74.022c-21.143,34.325-32.08,71.635-32.08,112.327
			c0,73.228,33.252,135.311,100.391,186.45c66.797,51.338,147.461,77.107,242.041,77.107
			C1522.265,1308.234,1602.88,1282.465,1669.824,1231.127z"/>
		<linearGradient id="SVGID_3_" gradientUnits="userSpaceOnUse" x1="1427.6367" y1="1934.2441" x2="1427.6366" y2="4.882813e-004">
			<stop  offset="0" style="stop-color:#78328E"/>
			<stop  offset="1" style="stop-color:#D389F5"/>
		</linearGradient>
		<path fill="url(#SVGID_3_)" d="M1427.734,73.525c157.568,0,288.281,54.522,399.756,167.148
			c111.328,113.124,165.332,245.25,165.332,404.24c0,79.992-11.523,144.961-33.984,193.713l-452.93,973.738
			c-7.324,15.223-17.139,26.365-31.25,35.021c-14.844,8.954-30.078,13.332-46.924,13.332c-16.699,0-32.031-4.378-46.729-13.332
			c-13.867-7.959-23.145-18.805-29.834-34.026L896.728,838.627c-22.559-48.752-34.082-114.019-34.082-193.713
			c0-158.99,53.955-291.117,165.234-404.24C1139.355,128.445,1270.214,73.525,1427.734,73.525 M1427.734,1083.38
			c118.652,0,221.484-43.181,305.615-128.247C1817.724,869.867,1860.4,765.4,1860.4,644.914
			c0-119.292-43.896-226.944-127.002-310.618c-84.229-85.265-187.109-128.246-305.664-128.246
			c-118.408,0-221.338,42.981-305.713,128.246C1038.964,417.97,994.97,525.622,994.97,644.914
			c0,120.486,42.725,224.953,127.051,310.219C1206.347,1040.199,1309.082,1083.38,1427.734,1083.38 M1427.734,0
			c-175.928,0-326.123,62.78-450.83,188.738C852.441,314.995,790.283,466.523,790.283,644.914
			c0,91.434,13.77,166.451,41.211,224.953l454.346,975.231c12.5,27.36,31.738,49.448,57.91,65.665
			c25.977,15.521,54.053,23.48,83.984,23.48c29.98,0,57.91-7.959,84.033-23.48c26.172-16.217,45.703-38.305,58.887-65.665
			l453.271-975.231c27.539-58.502,41.064-133.519,41.064-224.953c0-178.391-62.158-329.919-186.621-456.176
			C1753.759,62.78,1603.662,0,1427.734,0L1427.734,0z M1427.734,988.065c-93.018,0-173.73-34.126-239.551-100.588
			c-65.869-66.561-99.316-148.642-99.316-242.663c0-94.22,33.447-176.202,99.316-242.863
			c65.82-66.461,146.533-100.587,239.551-100.587c93.066,0,173.779,34.126,239.355,100.587
			c66.113,66.661,99.561,148.643,99.561,242.863c0,94.021-33.447,176.103-99.561,242.663
			C1601.513,953.939,1520.8,988.065,1427.734,988.065L1427.734,988.065z"/>
	</g>
</g>
</svg>
