<?xml version="1.0" encoding="utf-8"?>
<!-- Generator: Adobe Illustrator 16.0.0, SVG Export Plug-In . SVG Version: 6.00 Build 0)  -->
<!DOCTYPE svg PUBLIC "-//W3C//DTD SVG 1.1//EN" "http://www.w3.org/Graphics/SVG/1.1/DTD/svg11.dtd">
<svg version="1.1" xmlns="http://www.w3.org/2000/svg" xmlns:xlink="http://www.w3.org/1999/xlink" x="0px" y="0px" width="2000px"
	 height="2100px" viewBox="0 0 2000 2100" enable-background="new 0 0 2000 2100" xml:space="preserve">
<g id="Layer_5">
	<path display="none" fill="#231F20" d="M2186.948,1527c0,0,13-11,13-57.375h3c0,46.375-12,57.375-12,57.375H2186.948z"/>
	<path display="none" fill="#231F20" d="M2187.948,1527c0,0,4-6,7-15s5-25,5-36c0-6,0-6.375,0-6.375h3c0,0,0,0.375,0,6.375
		c0,9-1,23-5,36c-3.442,11.188-7,15-7,15H2187.948z"/>
</g>
<g id="Layer_1">
</g>
<g id="Isolation_Mode">
</g>
<g id="Layer_4_3_">
</g>
<g id="Layer_6">
	<g>
		<g>
			<linearGradient id="SVGID_1_" gradientUnits="userSpaceOnUse" x1="1000" y1="2100" x2="999.9999" y2="4.882813e-004">
				<stop  offset="0" style="stop-color:#C7CFD4"/>
				<stop  offset="0.7362" style="stop-color:#F0F3FC"/>
				<stop  offset="0.8213" style="stop-color:#FFFFFF"/>
				<stop  offset="1" style="stop-color:#FFFFFF"/>
			</linearGradient>
			<path fill="url(#SVGID_1_)" d="M153.848,1612.538h346.203v337.408H153.848V1612.538z M576.898,1612.538h384.678v337.408H576.898
				V1612.538z M153.848,1162.491h346.203v375.02H153.848V1162.491z M576.898,1162.491h384.678v375.02H576.898V1162.491z
				 M153.848,749.958h346.203v337.605H153.848V749.958z M1038.425,1612.538h384.677v337.408h-384.677V1612.538z M576.898,749.958
				h384.678v337.605H576.898V749.958z M1500.1,1612.538h346.137v337.408H1500.1V1612.538z M1038.425,1162.491h384.677v375.02
				h-384.677V1162.491z M603.996,551.374c-7.652,7.345-16.635,11.115-27.098,11.115h-76.848c-10.463,0-19.479-3.771-27.098-11.115
				c-7.617-7.443-11.428-16.238-11.428-26.398V187.568c0-10.259,3.811-19.053,11.428-26.397
				c7.619-7.444,16.635-11.116,27.098-11.116h76.848c10.463,0,19.445,3.672,27.098,11.116c7.618,7.345,11.428,16.139,11.428,26.397
				v337.408C615.424,535.136,611.614,543.93,603.996,551.374z M1500.1,1162.491h346.137v375.02H1500.1V1162.491z M1038.425,749.958
				h384.677v337.605h-384.677V749.958z M1500.1,749.958h346.137v337.605H1500.1V749.958z M1527.047,551.374
				c-7.618,7.345-16.65,11.115-26.947,11.115h-76.998c-10.463,0-19.445-3.771-27.097-11.115
				c-7.618-7.443-11.345-16.238-11.345-26.398V187.568c0-10.259,3.727-19.053,11.345-26.397
				c7.651-7.444,16.634-11.116,27.097-11.116h76.998c10.297,0,19.329,3.672,26.947,11.116c7.619,7.345,11.428,16.139,11.428,26.397
				v337.408C1538.475,535.136,1534.666,543.93,1527.047,551.374z M1954.391,344.571c-30.457-29.774-66.553-44.578-108.154-44.578
				h-153.898V187.568c0-51.643-18.846-95.727-56.537-132.467C1598.191,18.361,1552.93,0,1500.1,0h-76.998
				c-52.846,0-98.156,18.361-135.85,55.101c-37.692,36.74-56.439,80.824-56.439,132.467v112.426H769.238V187.568
				c0-51.643-18.848-95.727-56.49-132.467C675.057,18.361,629.828,0,576.898,0h-76.848c-52.93,0-98.191,18.361-135.85,55.101
				c-37.693,36.74-56.489,80.824-56.489,132.467v112.426H153.848c-41.685,0-77.73,14.804-108.188,44.578
				C15.236,374.246,0,409.339,0,449.949v1499.998c0,40.609,15.236,75.801,45.66,105.491C76.117,2085.113,112.163,2100,153.848,2100
				h1692.389c41.602,0,77.697-14.887,108.154-44.563c30.373-29.69,45.609-64.882,45.609-105.491V449.949
				C2000,409.339,1984.764,374.246,1954.391,344.571z"/>
			<linearGradient id="SVGID_2_" gradientUnits="userSpaceOnUse" x1="1000" y1="2100" x2="999.9999" y2="4.882813e-004">
				<stop  offset="0" style="stop-color:#7A829F"/>
				<stop  offset="1" style="stop-color:#C1C7D7"/>
			</linearGradient>
			<path fill="url(#SVGID_2_)" d="M1846.236,398.997c15.287,0,26.266,4.644,37.893,16.007
				c13.189,12.911,15.867,23.302,15.867,34.945v201.004h-53.76h-293.107c16.102-6.669,31.105-16.484,44.18-29.147
				c26.564-25.92,41.17-60.338,41.17-96.831V398.997h53.859H1846.236 M1284.657,398.997v125.979
				c0,36.542,14.604,70.96,41.751,97.505c12.842,12.269,27.547,21.902,43.515,28.472h-308.36h-99.986H629.928
				c16.119-6.669,31.105-16.484,44.33-29.147c26.581-25.92,41.169-60.338,41.169-96.831V398.997h53.812h461.574H1284.657
				 M361.523,398.997v125.979c0,36.492,14.604,70.911,41.65,97.308c12.842,12.384,27.629,22.05,43.648,28.669H153.848h-53.844
				V449.949c0-11.643,2.678-22.034,15.918-34.945c11.761-11.511,22.406-16.007,37.926-16.007h153.864H361.523 M1500.1,0h-76.998
				c-52.846,0-98.156,18.361-135.85,55.101c-37.692,36.74-56.439,80.824-56.439,132.467v112.426H769.238V187.568
				c0-51.643-18.848-95.727-56.49-132.467C675.057,18.361,629.828,0,576.898,0h-76.848c-52.93,0-98.191,18.361-135.85,55.101
				c-37.693,36.74-56.489,80.824-56.489,132.467v112.426H153.848c-41.685,0-77.73,14.804-108.188,44.578
				C15.236,374.246,0,409.339,0,449.949v1499.998c0,40.609,15.236,75.801,45.66,105.491C76.117,2085.113,112.163,2100,153.848,2100
				h1692.389c41.602,0,77.697-14.887,108.154-44.563c30.373-29.69,45.609-64.882,45.609-105.491V449.949
				c0-40.609-15.236-75.703-45.609-105.377c-30.457-29.774-66.553-44.578-108.154-44.578h-153.898V187.568
				c0-51.643-18.846-95.727-56.537-132.467C1598.191,18.361,1552.93,0,1500.1,0L1500.1,0z M1423.102,562.489
				c-10.463,0-19.445-3.771-27.097-11.115c-7.618-7.443-11.345-16.238-11.345-26.398V187.568c0-10.259,3.727-19.053,11.345-26.397
				c7.651-7.444,16.634-11.116,27.097-11.116h76.998c10.297,0,19.329,3.672,26.947,11.116c7.619,7.345,11.428,16.139,11.428,26.397
				v337.408c0,10.16-3.809,18.955-11.428,26.398c-7.618,7.345-16.65,11.115-26.947,11.115H1423.102L1423.102,562.489z
				 M500.051,562.489c-10.463,0-19.479-3.771-27.098-11.115c-7.617-7.443-11.428-16.238-11.428-26.398V187.568
				c0-10.259,3.811-19.053,11.428-26.397c7.619-7.444,16.635-11.116,27.098-11.116h76.848c10.463,0,19.445,3.672,27.098,11.116
				c7.618,7.345,11.428,16.139,11.428,26.397v337.408c0,10.16-3.81,18.955-11.428,26.398c-7.652,7.345-16.635,11.115-27.098,11.115
				H500.051L500.051,562.489z M1500.1,1087.563V749.958h346.137v337.605H1500.1L1500.1,1087.563z M1038.425,1087.563V749.958
				h384.677v337.605H1038.425L1038.425,1087.563z M576.898,1087.563V749.958h384.678v337.605H576.898L576.898,1087.563z
				 M153.848,1087.563V749.958h346.203v337.605H153.848L153.848,1087.563z M1500.1,1537.511v-375.02h346.137v375.02H1500.1
				L1500.1,1537.511z M1038.425,1537.511v-375.02h384.677v375.02H1038.425L1038.425,1537.511z M576.898,1537.511v-375.02h384.678
				v375.02H576.898L576.898,1537.511z M153.848,1537.511v-375.02h346.203v375.02H153.848L153.848,1537.511z M1500.1,1949.946
				v-337.408h346.137v337.408H1500.1L1500.1,1949.946z M1038.425,1949.946v-337.408h384.677v337.408H1038.425L1038.425,1949.946z
				 M576.898,1949.946v-337.408h384.678v337.408H576.898L576.898,1949.946z M153.848,1949.946v-337.408h346.203v337.408H153.848
				L153.848,1949.946z"/>
		</g>
		<g>
			<linearGradient id="SVGID_3_" gradientUnits="userSpaceOnUse" x1="538.4751" y1="562.4888" x2="538.4751" y2="0">
				<stop  offset="0" style="stop-color:#37CEED"/>
				<stop  offset="0.7001" style="stop-color:#5AE2FF"/>
				<stop  offset="0.7017" style="stop-color:#60E3FF"/>
				<stop  offset="0.7121" style="stop-color:#86EAFF"/>
				<stop  offset="0.7237" style="stop-color:#A7EFFF"/>
				<stop  offset="0.7365" style="stop-color:#C2F4FF"/>
				<stop  offset="0.7509" style="stop-color:#D9F8FF"/>
				<stop  offset="0.7675" style="stop-color:#EAFBFF"/>
				<stop  offset="0.7878" style="stop-color:#F6FDFF"/>
				<stop  offset="0.8157" style="stop-color:#FDFFFF"/>
				<stop  offset="0.8877" style="stop-color:#FFFFFF"/>
				<stop  offset="0.9035" style="stop-color:#FFFFFF"/>
				<stop  offset="1" style="stop-color:#FFFFFF"/>
			</linearGradient>
			<path fill-rule="evenodd" clip-rule="evenodd" fill="url(#SVGID_3_)" d="M307.712,0h461.526v562.489H307.712V0z"/>
			<linearGradient id="SVGID_4_" gradientUnits="userSpaceOnUse" x1="538.4751" y1="562.4888" x2="538.4751" y2="0">
				<stop  offset="0" style="stop-color:#3AA7CE"/>
				<stop  offset="1" style="stop-color:#51BDEB"/>
			</linearGradient>
			<path fill="url(#SVGID_4_)" d="M678.666,89.667v383.155H398.283V89.667H678.666 M769.238,0H307.712v562.489h461.526V0L769.238,0z
				"/>
		</g>
		<g>
			<linearGradient id="SVGID_5_" gradientUnits="userSpaceOnUse" x1="1461.5752" y1="562.4888" x2="1461.5752" y2="0">
				<stop  offset="0" style="stop-color:#37CEED"/>
				<stop  offset="0.7001" style="stop-color:#5AE2FF"/>
				<stop  offset="0.7017" style="stop-color:#60E3FF"/>
				<stop  offset="0.7121" style="stop-color:#86EAFF"/>
				<stop  offset="0.7237" style="stop-color:#A7EFFF"/>
				<stop  offset="0.7365" style="stop-color:#C2F4FF"/>
				<stop  offset="0.7509" style="stop-color:#D9F8FF"/>
				<stop  offset="0.7675" style="stop-color:#EAFBFF"/>
				<stop  offset="0.7878" style="stop-color:#F6FDFF"/>
				<stop  offset="0.8157" style="stop-color:#FDFFFF"/>
				<stop  offset="0.8877" style="stop-color:#FFFFFF"/>
				<stop  offset="0.9035" style="stop-color:#FFFFFF"/>
				<stop  offset="1" style="stop-color:#FFFFFF"/>
			</linearGradient>
			<path fill-rule="evenodd" clip-rule="evenodd" fill="url(#SVGID_5_)" d="M1230.813,0h461.525v562.489h-461.525V0z"/>
			<linearGradient id="SVGID_6_" gradientUnits="userSpaceOnUse" x1="1461.5752" y1="562.4888" x2="1461.5752" y2="0">
				<stop  offset="0" style="stop-color:#3AA7CE"/>
				<stop  offset="1" style="stop-color:#51BDEB"/>
			</linearGradient>
			<path fill="url(#SVGID_6_)" d="M1601.768,89.667v383.155h-280.383V89.667H1601.768 M1692.338,0h-461.525v562.489h461.525V0
				L1692.338,0z"/>
		</g>
	</g>
</g>
</svg>
