<svg xmlns="http://www.w3.org/2000/svg" viewBox="0 0 2900 3400"><path fill="#333" d="M1451.758 2754.011c-216.572 0-429.825-74.821-598.943-210.86l517.704-520.154h-1370.519v1377.003l507.548-509.95c264.027 224.269 598.943 346.704 944.209 346.704 768.061 0 1404.107-601.777 1444.727-1373.604h-483.919c-40.424 499.845-460.093 890.861-960.807 890.861zm940.693-2244.06c-264.027-224.367-598.943-346.705-940.693-346.705-771.577 0-1407.819 601.681-1448.438 1373.604h483.919c40.62-499.846 463.609-890.86 964.52-890.86 213.058 0 426.31 74.821 595.427 210.86l-517.703 520.154h1370.517v-1377.004l-507.549 509.951z"/></svg>