<svg xmlns="http://www.w3.org/2000/svg" viewBox="0 0 1000 1000"><path fill="#808080" d="M680.037 699.927c0-15.959-5.997-30.949-18.009-41.862l-101.986-103.126v-314.937c0-32.987-27.059-59.989-60.042-59.989-32.979 0-60.042 27.002-60.042 59.989v319.983c0 21.997 1.045 44.971 18.013 62.068l120 119.906c11.043 12.052 26.017 18.074 42.032 18.074 32.976.001 60.034-27.033 60.034-60.106zm203.012-199.927c0 81.006-26.018 160.994-74.048 225.993l-2.002-1.962c-22.966 30.966-51.945 59.953-83.017 82.919l1.994 1.961c-64.997 48.064-144.962 74.121-225.976 74.121-211.019 0-382.959-172.029-382.959-383.032 0-81.006 25.928-160.986 73.962-225.993l1.998 1.994c22.974-30.989 52.039-59.985 83.017-82.996l-1.998-1.997c65.002-47.974 144.967-73.999 225.98-73.999 211.019 0 383.049 171.984 383.049 382.991zm116.951 0c0-276.001-223.982-500-500-500s-500 223.999-500 500c0 276.009 223.982 500 500 500s500-223.991 500-500z"/></svg>