<svg xmlns="http://www.w3.org/2000/svg" viewBox="0 0 2000 1600"><path fill="#333" d="M1975.286 1303.856c-16.505-15.857-36.036-23.738-58.594-23.738h-1833.39c-22.558 0-42.089 7.881-58.594 23.738-16.505 15.757-24.708 34.535-24.708 56.229v159.948c0 21.793 8.203 40.472 24.708 56.229 16.505 15.955 36.036 23.738 58.594 23.738h1833.391c22.558 0 42.089-7.783 58.594-23.738 16.507-15.757 24.714-34.436 24.714-56.229v-159.948c-.001-21.694-8.208-40.472-24.715-56.229zm0-640.059c-16.505-15.862-36.036-23.836-58.594-23.836h-1833.39c-22.558 0-42.089 7.974-58.594 23.836-16.505 15.857-24.708 34.537-24.708 56.231v160.04c0 21.595 8.203 40.371 24.708 56.235 16.505 15.759 36.036 23.731 58.594 23.731h1833.391c22.558 0 42.089-7.973 58.594-23.731 16.507-15.864 24.714-34.641 24.714-56.235v-160.04c-.001-21.694-8.208-40.374-24.715-56.231zm0-640.063c-16.505-15.757-36.036-23.734-58.594-23.734h-1833.39c-22.558 0-42.089 7.977-58.594 23.734-16.505 15.862-24.708 34.639-24.708 56.235v160.041c0 21.694 8.203 40.374 24.708 56.23 16.505 15.861 36.036 23.738 58.594 23.738h1833.391c22.558 0 42.089-7.877 58.594-23.738 16.507-15.856 24.714-34.536 24.714-56.23v-160.041c-.001-21.596-8.208-40.373-24.715-56.235z"/></svg>