<svg xmlns="http://www.w3.org/2000/svg" width="1800" height="1800"><path fill="#4A494A" d="M1463.38 446.396c-59.351-17.979-115.146-17.979-115.146-17.979-55.842 0-106.233 19.787-106.233 75.581v162.00600000000003h228.585l-16.165 207.003h-212.421v719.99h-268.215v-719.99h-142.166v-207.003h142.167v-140.412c0-61.168 1.849-154.776 46.836-214.185 46.788-61.217 111.59-104.405 221.379-104.405 0 0 179.995 0 257.407 27.018l-36.028 212.376zm336.62-287.957c0-86.425-72.007-158.439-158.378-158.439h-1483.196c-86.419 0-158.426 72.014-158.426 158.439v1483.169c0 86.427 72.007 158.392 158.426 158.392h1483.195c86.371 0 158.378-71.965 158.378-158.391v-1483.17z"/></svg>