<svg xmlns="http://www.w3.org/2000/svg" viewBox="0 0 1400 2100"><linearGradient id="a" gradientUnits="userSpaceOnUse" x1="700.079" y1="2051.417" x2="700.079" y2="39.352"><stop offset="0" stop-color="#A27DE7"/><stop offset="1" stop-color="#B69AE7"/></linearGradient><path fill="url(#a)" d="M1163.663 231.653c-129.139-129.307-280.846-192.302-463.585-192.302-183.051 0-334.603 62.995-463.897 192.302-129.139 129.308-191.828 281.035-191.828 463.547 0 92.361 13.478 168.304 40.748 225.929l498.847 1058.609c10.187 22.261 25.39 39.155 46.547 52.1 21.941 13.106 44.51 19.579 69.584 19.579 24.763 0 47.643-6.473 69.428-19.736 21.472-12.787 37.145-29.998 48.114-52.415l497.279-1058.137c27.113-57.625 40.904-133.567 40.904-225.929.001-182.512-62.845-334.239-192.141-463.547zm-146.065 781.84c-87.294 87.623-194.021 131.832-317.52 131.832-123.653 0-230.225-44.209-317.675-131.832-87.295-87.626-131.49-194.672-131.49-318.293 0-123.466 44.195-230.667 131.49-318.135 87.451-87.467 194.022-131.678 317.675-131.678 123.498 0 230.225 44.211 317.52 131.678 87.452 87.468 131.646 194.669 131.646 318.135 0 123.621-44.195 230.667-131.646 318.293z"/><path fill="#fff" d="M205.149 547.737c136.662-163.566 301.69-244.719 494.929-244.719 193.082 0 358.111 81.152 494.773 244.719 100.459 119.676 163.774 258.14 190.417 414.286 9.718-53.364 14.732-113.361 14.732-180.303 0-230.826-68.33-427.391-205.149-590.645-136.662-163.092-301.691-244.718-494.773-244.718-193.238 0-358.267 81.625-494.929 244.719-136.662 163.254-204.992 359.819-204.992 590.645 0 66.941 5.015 126.938 14.575 180.303 26.486-156.147 89.959-294.611 190.417-414.287z"/><path fill="#fff" d="M965.88 1336.523c73.346-55.734 110.176-122.992 110.176-202.251 0-44.522-12.068-84.94-35.263-122.044-17.866 28.737-42.629 55.418-74.913 80.204-73.347 55.734-162.051 83.68-265.802 83.68-103.906 0-192.455-27.945-265.8-83.68-32.285-24.786-57.047-51.467-74.913-80.204-23.195 37.104-35.419 77.521-35.419 122.044 0 79.259 36.673 146.517 110.333 202.251 73.346 55.889 161.894 83.834 265.8 83.834 103.75 0 192.454-27.945 265.801-83.834z"/><linearGradient id="b" gradientUnits="userSpaceOnUse" x1="700" y1="2100.204" x2="700" y2="-.278"><stop offset="0" stop-color="#78328E"/><stop offset="1" stop-color="#D389F5"/></linearGradient><path fill="url(#b)" d="M700.078 79.611c173.022 0 316.58 59.363 438.823 181.882 122.243 122.361 181.798 265.718 181.798 438.284 0 86.994-12.852 157.728-37.613 210.618l-497.123 1057.501c-7.993 16.577-18.964 28.734-34.322 38.051-16.299 9.632-33.068 14.524-51.563 14.524-18.493 0-35.262-4.736-51.404-14.524-15.045-9-25.389-20.526-32.755-36.946l-498.847-1058.605c-24.919-53.052-37.614-123.781-37.614-210.618 0-172.566 59.241-315.923 181.485-438.284 122.556-122.362 266.114-181.883 439.135-181.883m0 1143.549c143.088 0 267.212-51.468 368.612-152.988 101.869-101.676 153.431-226.246 153.431-370.395 0-141.936-53.128-270.136-153.431-370.394-101.557-101.521-225.681-152.99-368.612-152.99-142.93 0-267.054 51.47-368.768 152.99-100.146 100.258-153.274 228.3-153.274 370.394 0 144.148 51.562 268.719 153.274 370.395 101.714 101.52 225.681 152.988 368.768 152.988m0-1223.438c-193.238 0-358.267 68.206-494.929 205.09-136.662 136.889-205.149 301.56-205.149 494.965 0 99.469 15.202 181.093 45.292 244.878l498.848 1058.606c13.634 29.999 34.949 53.681 63.786 71.207 28.523 17.21 59.398 25.736 92.152 25.736 32.912 0 63.63-8.526 92.153-25.736 28.838-17.526 50.152-41.208 64.884-71.207l497.75-1058.605c30.091-63.786 45.135-145.41 45.135-244.879 0-193.405-68.33-358.076-205.149-494.965-136.505-136.884-301.535-205.09-494.773-205.09zm0 1143.708c-121.615 0-226.934-44.048-312.818-130.097-86.197-85.887-129.766-191.826-129.766-313.556 0-121.569 43.569-227.509 129.766-313.396 85.884-86.047 191.203-130.099 312.818-130.099 121.617 0 226.935 44.052 312.818 130.099 86.197 85.888 129.766 191.827 129.766 313.396 0 121.729-43.569 227.669-129.766 313.556-85.883 86.049-191.201 130.097-312.818 130.097z"/></svg>