<svg xmlns="http://www.w3.org/2000/svg" viewBox="0 0 1000 1500"><linearGradient id="a" gradientUnits="userSpaceOnUse" x1="500.047" y1="1465.132" x2="500.047" y2="28.375"><stop offset="0" stop-color="#A27DE7"/><stop offset="1" stop-color="#B69AE7"/></linearGradient><path fill="url(#a)" d="M831.352 165.606c-92.37-92.23-200.643-137.231-331.252-137.231-130.613 0-238.882 45.002-331.256 137.232-92.272 92.231-137.151 200.673-137.151 331.013 0 65.877 9.762 120.201 29.082 161.553l356.411 755.881c7.245 15.81 18.11 27.972 33.205 37.092 15.695 9.528 31.795 13.986 49.709 13.986 17.808 0 34.01-4.458 49.607-13.986 15.397-9.12 26.565-21.484 34.313-37.499l355.201-755.474c19.521-41.352 29.18-95.676 29.18-161.553 0-130.34-44.777-238.782-137.049-331.014zm-104.449 558.444c-62.385 62.437-138.659 94.054-226.803 94.054-88.349 0-164.423-31.617-226.808-94.054-62.487-62.634-93.984-139.052-93.984-227.43 0-88.177 31.497-164.797 93.984-227.229 62.385-62.433 138.458-94.054 226.808-94.054 88.145 0 164.418 31.622 226.803 94.054 62.389 62.433 94.188 139.053 94.188 227.229.001 88.378-31.799 164.796-94.188 227.43z"/><path fill="#fff" d="M146.606 391.214c97.707-116.556 215.436-174.732 353.494-174.732 138.054 0 255.783 58.176 353.391 174.731 71.845 85.543 77.782 184.462 96.799 295.946 6.84-37.906 36.727-78.446 36.727-126.078 0-165.003-49.304-283.99-146.909-400.748-97.706-116.347-192.494-121.011-332.163-131.958-137.649-10.945-199.637 17.836-324.207 109.665-122.359 90-166.233 256.417-166.233 421.42 0 47.632 23.545 89.794 30.39 127.7 18.915-111.484 26.965-210.403 98.711-295.946z"/><path fill="#fff" d="M689.976 954.729c52.426-39.73 78.689-87.77 78.689-144.527 0-31.621-8.553-60.608-25.257-87.164-12.68 20.472-30.39 39.528-53.432 57.366-52.422 39.729-115.719 59.596-189.876 59.596-74.264 0-137.454-19.867-189.978-59.597-22.944-17.838-40.654-36.895-53.432-57.366-16.602 26.556-25.257 55.543-25.257 87.164 0 56.758 26.164 104.797 78.689 144.527 52.524 39.729 115.714 59.798 189.978 59.798 74.157 0 137.454-20.068 189.876-59.797z"/><linearGradient id="b" gradientUnits="userSpaceOnUse" x1="500" y1="1500" x2="500"><stop offset="0" stop-color="#78328E"/><stop offset="1" stop-color="#D389F5"/></linearGradient><path fill="url(#b)" d="M500.1 56.958c123.564 0 226.203 42.364 313.542 129.73 87.344 87.769 129.706 190.133 129.706 313.376 0 62.029-8.957 112.501-26.667 150.206l-355.202 755.269c-5.835 11.759-13.484 20.472-24.554 27.159-11.67 6.895-23.643 10.339-36.825 10.339-13.084 0-25.155-3.444-36.629-10.339-10.865-6.28-18.11-14.595-23.442-26.349l-356.514-756.078c-17.608-37.706-26.765-88.382-26.765-150.207 0-123.243 42.464-225.607 129.706-313.376 87.441-87.164 190.076-129.73 313.644-129.73m0 816.689c102.234 0 190.783-36.689 263.232-109.259 72.85-72.565 109.679-161.553 109.679-264.324 0-101.553-38.035-193.174-109.479-264.526-72.649-72.57-161.198-109.258-263.432-109.258-102.034 0-190.685 36.688-263.433 109.258-71.546 71.353-109.479 162.974-109.479 264.526 0 102.771 36.825 191.759 109.479 264.324 72.65 72.57 161.199 109.259 263.433 109.259m0-873.647c-138.058 0-255.787 48.649-353.592 146.349-97.608 97.907-146.508 215.474-146.508 353.715 0 70.948 10.865 129.125 32.4 174.53l356.407 756.28c9.762 21.283 24.857 38.314 45.382 50.88 20.427 12.163 42.464 18.246 65.911 18.246 23.545 0 45.48-6.083 65.907-18.245 20.427-12.565 35.922-29.597 46.187-50.88l355.606-756.28c21.53-45.405 32.2-103.582 32.2-174.53 0-138.241-48.802-255.809-146.509-353.715-97.608-97.701-215.337-146.35-353.391-146.35zm0 816.688c-86.841 0-162.106-31.42-223.485-92.84-61.482-61.214-92.676-137.027-92.676-223.784 0-86.958 31.194-162.565 92.676-223.985 61.379-61.42 136.644-92.836 223.485-92.836 86.939 0 162.204 31.416 223.383 92.836 61.584 61.42 92.778 137.027 92.778 223.985 0 86.757-31.194 162.57-92.778 223.784-61.179 61.421-136.444 92.84-223.383 92.84z"/></svg>