<svg xmlns="http://www.w3.org/2000/svg" viewBox="0 0 1900 1500"><linearGradient id="a" gradientUnits="userSpaceOnUse" x1="1374.171" y1="1443.561" x2="1374.171" y2="56.44"><stop offset="0" stop-color="#3AA7CE"/><stop offset="1" stop-color="#51BDEB"/></linearGradient><path fill="url(#a)" d="M1864.722 793.493l-680.829-653.691c-24.125-23.301-56.552-42.977-97.149-59.03-40.729-16.308-77.696-24.333-111.289-24.333h-127.113c33.596 0 70.561 8.025 111.289 24.333 40.598 16.053 73.024 35.729 97.149 59.03l680.828 653.691c23.606 23.817 35.278 51.777 35.278 83.364 0 32.357-11.672 59.801-35.278 82.325l-467.462 450.723c-7.392 6.731-15.889 10.357-24.06 15.016 2.724 1.813 5.708 4.401 8.238 5.956 14.656 8.541 33.334 12.684 56.292 12.684 32.945 0 61.87-11.132 86.643-33.655l467.463-450.723c23.605-22.524 35.278-49.968 35.278-82.325 0-31.587-11.673-59.547-35.278-83.365z"/><linearGradient id="b" gradientUnits="userSpaceOnUse" x1="731.023" y1="1443.561" x2="731.023" y2="56.44"><stop offset="0" stop-color="#C7CFD4"/><stop offset="1" stop-color="#F1F3FA"/></linearGradient><path fill="url(#b)" d="M314.278 514.929c-47.472 0-87.875-16.311-121.535-48.671-33.529-32.103-50.391-71.193-50.391-116.759 0-45.563 16.862-84.654 50.391-117.016 33.659-32.619 74.063-48.671 121.535-48.671 47.602 0 88.005 16.052 121.665 48.671 33.528 32.362 50.391 71.454 50.391 117.016 0 45.565-16.863 84.656-50.391 116.759-33.66 32.36-74.064 48.671-121.665 48.671zm1102.762 278.564l-680.828-653.691c-24.125-23.301-56.553-42.977-97.15-59.03-40.469-16.308-77.823-24.333-111.418-24.333h-396.122c-33.074 0-61.61 11.65-85.736 34.69-24.125 23.301-36.189 50.744-36.189 82.328v381.081c0 32.363 8.432 68.088 25.294 107.181 16.731 39.095 37.225 69.899 61.351 92.424l680.828 655.763c23.606 22.523 52.142 33.655 85.865 33.655 32.946 0 61.87-11.132 86.645-33.655l467.46-450.723c23.605-22.524 35.408-49.968 35.408-82.325 0-31.587-11.802-59.547-35.408-83.365z"/><path fill="#fff" d="M280.685 629.876c35.605 34.172 78.406 51.261 128.603 51.261 50.328 0 93.129-17.089 128.734-51.261 35.475-34.433 53.245-75.338 53.245-123.747 0-25.112-4.864-47.768-14.269-69.125-8.949 19.934-21.659 38.316-38.976 54.887-35.604 34.168-78.406 51.129-128.734 51.129-50.196 0-92.998-16.961-128.603-51.129-17.316-16.57-30.223-34.953-39.106-54.887-9.274 21.357-14.138 44.013-14.138 69.125-.001 48.409 17.639 89.314 53.244 123.747z"/><path fill="#fff" d="M1417.04 821.713l-680.828-653.954c-24.125-23.298-56.553-42.713-97.15-59.024-40.599-16.053-77.823-24.335-111.418-24.335h-396.122c-33.074 0-61.61 11.65-85.736 34.95-24.125 23.04-36.189 50.481-36.189 82.325v233.389c0-31.716 12.064-59.156 36.189-82.457 24.125-23.169 52.662-34.688 85.736-34.688h396.122c33.596 0 70.82 8.023 111.418 24.205 40.598 16.179 73.025 35.854 97.15 59.156l680.828 653.953c11.414 11.387 19.843 23.814 25.812 37.279 6.356-14.241 9.469-170.87 9.469-187.439-.001-31.843-11.675-59.543-35.281-83.36z"/><linearGradient id="c" gradientUnits="userSpaceOnUse" x1="777.913" y1="1500" x2="777.913"><stop offset="0" stop-color="#7A829F"/><stop offset="1" stop-color="#C1C7D7"/></linearGradient><path fill="url(#c)" d="M909.824 1500c-48.512 0-90.535-16.57-124.908-49.447l-681.02-656.024c-29.185-27.182-54.348-64.723-74.063-110.805-19.78-45.825-29.833-89.317-29.833-129.186v-381.081c0-46.728 18.483-89.317 53.503-122.843 34.956-33.526 76.981-50.614 124.909-50.614h396.122c40.793 0 85.347 9.58 132.429 28.479 47.213 18.64 86.061 42.458 115.438 70.678l680.697 653.694c34.764 34.948 52.727 77.405 52.727 124.007 0 47.633-18.289 90.092-52.856 123.23l-467.265 450.203c-36.578 33.399-78.537 49.709-125.88 49.709zm-731.412-1387.253c-18.485 0-32.816 5.825-46.565 19.028-13.035 12.558-18.874 25.372-18.874 41.682v381.081c0 24.34 6.939 53.073 20.688 84.917 13.554 31.584 29.703 56.437 48.057 73.526l681.476 656.278c25.683 24.339 66.346 25.373 95.269-1.037l466.23-449.429c12.645-12.168 18.158-25.111 18.158-41.937 0-16.829-6.032-30.551-18.938-43.494l-679.982-653.045c-18.743-17.993-45.203-33.913-78.798-47.247-33.854-13.464-64.269-20.323-90.599-20.323h-396.122zm182.755 449.561c-58.302 0-111.093-21.103-152.664-61.101-42.542-40.903-65.048-93.456-65.048-151.708 0-58.377 22.44-110.803 64.982-151.966 83.661-80.125 222.058-79.997 305.457-.131 42.674 41.293 65.114 93.72 65.114 152.097 0 58.252-22.503 110.805-65.047 151.708-41.571 39.998-94.427 61.101-152.794 61.101zm0-313.128c-29.249 0-53.569 9.708-74.386 29.644-20.364 19.674-30.352 42.715-30.352 70.675 0 27.7 9.923 50.873 30.416 70.548 41.441 39.738 107.397 39.738 148.774 0 20.493-19.675 30.417-42.848 30.417-70.548 0-27.96-9.989-51.001-30.483-70.934-20.688-19.677-45.072-29.385-74.386-29.385z"/></svg>