<svg xmlns="http://www.w3.org/2000/svg" viewBox="0 0 1400 1100"><linearGradient id="a" gradientUnits="userSpaceOnUse" x1="1012.548" y1="1058.692" x2="1012.548" y2="41.404"><stop offset="0" stop-color="#3AA7CE"/><stop offset="1" stop-color="#51BDEB"/></linearGradient><path fill="url(#a)" d="M1374.024 582.029l-501.663-479.491c-17.771-17.09-41.698-31.545-71.581-43.36-30.029-11.816-57.276-17.774-82.031-17.774h-93.653c24.756 0 52.002 5.958 81.981 17.774 29.933 11.815 53.81 26.27 71.583 43.36l501.66 479.491c17.432 17.287 26.026 37.891 26.026 61.037 0 23.73-8.594 43.945-26.026 60.449l-344.434 330.472c-5.419 4.977-11.719 7.61-17.725 11.031 2.002 1.369 4.199 3.125 6.056 4.299 10.84 6.345 24.56 9.376 41.504 9.376 24.269 0 45.604-8.203 63.817-24.706l344.484-330.472c17.382-16.504 25.976-36.719 25.976-60.449.002-23.146-8.592-43.75-25.974-61.037z"/><linearGradient id="b" gradientUnits="userSpaceOnUse" x1="538.647" y1="1058.692" x2="538.647" y2="41.404"><stop offset="0" stop-color="#C7CFD4"/><stop offset="1" stop-color="#F1F3FA"/></linearGradient><path fill="url(#b)" d="M231.592 377.733c-35.012 0-64.796-11.914-89.552-35.743-24.708-23.633-37.158-52.247-37.158-85.74 0-33.4 12.451-62.014 37.158-85.744 24.756-23.829 54.541-35.645 89.552-35.645 35.059 0 64.843 11.816 89.649 35.645 24.706 23.729 37.108 52.344 37.108 85.744 0 33.493-12.403 62.107-37.108 85.74-24.805 23.829-54.59 35.743-89.649 35.743zm812.547 204.296l-501.66-479.491c-17.771-17.09-41.698-31.545-71.58-43.36-29.835-11.816-57.374-17.774-82.129-17.774h-291.848c-24.364 0-45.409 8.596-63.181 25.586-17.774 16.896-26.663 37.013-26.663 60.351v279.297c0 23.73 6.203 49.904 18.606 78.615 12.353 28.611 27.441 51.267 45.215 67.871l501.66 480.861c17.433 16.503 38.426 24.706 63.281 24.706 24.266 0 45.605-8.203 63.869-24.706l344.431-330.472c17.385-16.504 26.076-36.719 26.076-60.449-.001-23.144-8.692-43.748-26.077-61.035z"/><path fill="#fff" d="M206.837 461.914c26.22 25.097 57.762 37.597 94.725 37.597 37.108 0 68.653-12.5 94.874-37.597 26.123-25.198 39.209-55.275 39.209-90.823 0-18.261-3.567-34.958-10.501-50.583-6.592 14.646-15.967 28.125-28.708 40.233-26.221 25-57.766 37.5-94.874 37.5-36.963 0-68.505-12.5-94.725-37.5-12.794-12.108-22.267-25.587-28.809-40.233-6.837 15.625-10.451 32.323-10.451 50.583 0 35.548 12.989 65.625 39.26 90.823z"/><path fill="#fff" d="M1044.139 602.733l-501.66-479.59c-17.771-17.09-41.698-31.445-71.58-43.455-29.932-11.722-57.374-17.774-82.129-17.774h-291.848c-24.364 0-45.409 8.496-63.181 25.586-17.774 16.99-26.663 37.108-26.663 60.351v171.289c0-23.244 8.889-43.361 26.663-60.548 17.772-16.991 38.817-25.39 63.181-25.39h291.848c24.755 0 52.197 5.86 82.129 17.773 29.882 11.816 53.809 26.171 71.58 43.358l501.66 479.493c8.399 8.397 14.603 17.479 18.994 27.343 4.688-10.447 6.982-125.194 6.982-137.305 0-23.436-8.591-43.652-25.976-61.131z"/><linearGradient id="c" gradientUnits="userSpaceOnUse" x1="573.193" y1="1100" x2="573.193"><stop offset="0" stop-color="#7A829F"/><stop offset="1" stop-color="#C1C7D7"/></linearGradient><path fill="url(#c)" d="M670.41 1100c-35.744 0-66.699-12.11-92.041-36.133l-501.806-481.155c-21.533-19.823-40.038-47.362-54.59-81.25-14.553-33.593-21.973-65.524-21.973-94.823v-279.298c0-34.375 13.624-65.625 39.404-90.233 25.782-24.608 56.737-37.108 92.04-37.108h291.896c30.077 0 62.889 7.029 97.559 20.897 34.814 13.673 63.426 31.25 85.059 51.954l501.609 479.392c25.586 25.587 38.818 56.739 38.818 90.822 0 34.96-13.475 66.209-38.915 90.331l-344.336 330.271c-26.952 24.416-57.86 36.333-92.724 36.333zm-538.966-1017.288c-13.623 0-24.168 4.396-34.277 13.965-9.62 9.18-13.915 18.652-13.915 30.664v279.297c0 17.969 5.126 38.966 15.233 62.306 10.011 23.243 21.875 41.406 35.401 53.906l502.148 481.347c18.945 17.872 48.877 18.555 70.215-.784l343.506-329.588c9.328-8.788 13.378-18.359 13.378-30.761 0-12.306-4.443-22.363-13.915-31.934l-501.072-478.807c-13.821-13.378-33.302-24.903-58.057-34.67-24.953-9.958-47.365-14.941-66.748-14.941h-291.897zm134.668 329.788c-42.966 0-81.834-15.527-112.5-44.923-31.346-29.979-47.898-68.458-47.898-111.326 0-42.775 16.504-81.25 47.851-111.33 61.668-58.789 163.624-58.594 225.097-.097 31.444 30.176 47.998 68.652 47.998 111.426 0 42.868-16.601 81.347-47.948 111.326-30.617 29.396-69.582 44.924-112.6 44.924zm0-229.687c-21.533 0-39.451 7.129-54.785 21.678-15.039 14.455-22.362 31.447-22.362 51.76 0 20.507 7.276 37.4 22.412 51.854 30.519 29.199 79.101 29.004 109.62 0 15.086-14.454 22.412-31.347 22.412-51.854 0-20.313-7.374-37.306-22.461-51.857-15.285-14.453-33.203-21.581-54.836-21.581z"/></svg>