<svg xmlns="http://www.w3.org/2000/svg" width="1800" height="1800"><path fill="#4A494A" d="M1800 213.069c-66.201 36.133-137.427 60.562-212.104 71.532 76.251-56.208 134.805-145.269 162.377-251.351-71.356 52.08-150.404 89.853-234.52 110.267-67.337-88.327-163.338-143.517-269.565-143.517-203.933 0-369.281 203.399-369.281 454.354 0 35.681 3.277 70.345 9.57 103.594-306.883-18.943-579.027-199.837-761.155-474.824-31.768 67.178-49.989 145.212-49.989 228.449 0 157.709 65.195 296.814 164.256 378.242-60.52-2.318-117.5-22.789-167.271-56.83-.044 1.922-.044 3.789-.044 5.711 0 220.194 127.333 403.858 296.264 445.646-30.981 10.348-63.623 15.946-97.313 15.946-23.771 0-46.886-2.884-69.478-8.199 47.018 180.498 183.395 311.913 344.986 315.532-126.371 121.915-285.602 194.578-458.641 194.578-29.801 0-59.166-2.206-88.093-6.39 163.427 128.983 357.572 204.191 566.092 204.191 679.266 0 1050.732-692.417 1050.732-1292.888 0-19.678-.394-39.3-1.093-58.809 72.145-64.067 134.762-144.081 184.27-235.234z"/></svg>