<svg xmlns="http://www.w3.org/2000/svg" width="1100" height="1200"><linearGradient id="a" gradientUnits="userSpaceOnUse" x1="549.975" y1="596.486" x2="549.975"><stop offset="0" stop-color="#C7CFD4"/><stop offset="1" stop-color="#F1F3FA"/></linearGradient><path fill="url(#a)" d="M550 0c-82.909 0-153.515 29.298-212.207 87.403-58.495 58.25-87.793 128.562-87.793 210.935 0 82.326 29.298 152.638 87.793 210.841 58.692 58.399 129.298 87.307 212.207 87.307 82.91 0 153.565-28.908 212.157-87.307 58.545-58.203 87.793-128.515 87.793-210.841 0-82.373-29.248-152.685-87.793-210.935-58.592-58.105-129.247-87.403-212.157-87.403z"/><linearGradient id="b" gradientUnits="userSpaceOnUse" x1="550" y1="1196.582" x2="550" y2="550.294"><stop offset="0" stop-color="#48C6E6"/><stop offset="1" stop-color="#75D0ED"/></linearGradient><path fill="url(#b)" d="M1097.315 915.135c-1.855-26.172-5.469-54.49-10.841-84.765-5.566-30.176-12.499-58.202-20.798-84.375-8.449-25.879-19.483-50.879-33.642-75.683-14.016-24.316-30.127-45.408-48.391-62.989-18.261-17.284-40.575-31.054-66.798-41.404-26.366-10.352-55.467-15.625-87.06-15.625-4.688 0-15.722 5.76-32.86 16.698-17.14 11.327-36.523 23.73-58.302 37.306-21.582 13.77-49.756 26.17-84.325 37.207-34.718 11.231-69.387 16.795-104.298 16.795-34.961 0-69.629-5.563-104.248-16.795-34.668-11.037-62.793-23.438-84.375-37.207-21.728-13.576-41.114-25.979-58.252-37.306-17.138-10.938-28.272-16.698-32.813-16.698-31.689 0-60.938 5.274-87.109 15.625-26.316 10.351-48.584 24.12-66.845 41.404-18.263 17.581-34.375 38.673-48.391 62.989-14.109 24.804-25.194 49.804-33.688 75.683-8.303 26.173-15.139 54.199-20.753 84.375-5.37 30.274-9.035 58.593-10.841 84.765-1.806 25.977-2.685 53.029-2.685 80.274 0 62.304 18.946 111.328 57.08 147.169 37.844 36.133 88.379 54.004 151.466 54.004h682.91c63.086 0 113.576-17.871 151.513-54.004 37.989-35.841 57.032-84.865 57.032-147.169-.001-27.245-.831-54.297-2.686-80.274z"/><path fill="#fff" d="M1012.744 762.987c-7.177-22.168-16.845-44.14-28.905-65.136-11.377-20.116-24.463-37.109-38.622-50.391-12.94-12.5-29.348-22.557-48.831-30.273-17.088-6.739-36.181-10.45-56.933-11.523-2.832 1.659-6.787 4.102-12.256 7.716-16.991 10.938-36.082 23.241-58.592 37.5-25.88 16.405-57.716 30.563-97.169 43.261-40.039 12.793-80.907 19.433-121.435 19.433-40.575 0-81.396-6.64-121.435-19.336-39.453-12.794-71.289-26.952-97.169-43.357-22.753-14.456-41.99-26.759-58.642-37.5-5.566-3.614-9.375-6.057-12.206-7.716-20.753 1.073-39.893 4.784-56.983 11.523-19.483 7.717-35.938 17.773-48.828 30.273-14.162 13.281-27.199 30.274-38.526 50.391-12.157 20.996-21.778 42.968-29.005 65.136-7.568 23.537-13.916 49.416-18.993 76.955-2.052 12.106-3.858 23.534-5.42 34.472 1.709-3.027 3.368-6.154 5.174-9.277 14.016-24.709 30.128-45.703 48.391-62.795 18.26-17.283 40.528-31.442 66.845-41.504 26.172-10.545 55.42-15.914 87.109-15.914 4.541 0 15.675 5.563 32.813 16.894 17.138 11.231 36.524 23.631 58.252 37.401 21.582 13.475 49.707 25.879 84.375 37.207 34.619 11.133 69.287 16.603 104.248 16.603 34.911 0 69.58-5.47 104.298-16.603 34.569-11.328 62.744-23.732 84.325-37.207 21.779-13.771 41.162-26.17 58.302-37.401 17.138-11.33 28.172-16.894 32.86-16.894 31.593 0 60.694 5.369 87.06 15.914 26.223 10.062 48.537 24.221 66.798 41.504 18.263 17.092 34.375 38.086 48.391 62.795 1.805 3.123 3.514 6.25 5.173 9.277-1.612-10.938-3.368-22.559-5.517-34.472-4.982-27.54-11.329-53.419-18.947-76.956z"/><linearGradient id="c" gradientUnits="userSpaceOnUse" x1="550" y1="1200" x2="550" y2="550.294"><stop offset="0" stop-color="#3AA7CE"/><stop offset="1" stop-color="#51BDEB"/></linearGradient><path fill="url(#c)" d="M260.011 608.399c3.221 1.854 6.834 4.101 10.888 6.736 17.53 11.62 37.303 24.12 59.131 37.793 25.78 16.505 57.763 30.764 97.654 43.557 40.039 12.987 81.154 19.627 122.315 19.627 41.114 0 82.227-6.64 122.218-19.627 40.039-12.793 72.021-27.148 97.411-43.36 22.216-13.869 41.991-26.369 58.739-37.5 4.591-2.932 8.399-5.273 11.621-7.226 20.216.879 38.869 4.784 55.567 11.327 19.14 7.52 35.304 17.384 47.608 29.005 14.209 13.769 27.149 30.663 38.33 50.192 12.013 20.998 21.485 42.287 28.811 64.75 7.566 23.631 13.963 49.705 18.943 76.951 4.98 28.028 8.35 54.588 10.058 78.905 1.759 24.806 2.589 50.683 2.589 76.563 0 46.582-12.793 81.445-38.966 106.349-28.271 26.756-64.793 39.646-111.474 39.646h-682.91c-46.095 0-83.546-13.279-111.377-39.55-26.27-24.902-39.062-59.961-39.062-107.129 0-25.778.879-51.562 2.588-76.269 1.609-23.731 5.028-50.197 10.009-78.322 5.227-28.221 11.427-53.708 18.847-76.952 7.376-22.461 16.897-43.847 28.908-64.842 11.23-19.63 24.17-36.524 37.89-49.807 12.842-12.107 29.004-21.972 48.537-29.589 16.307-6.54 34.862-10.349 55.127-11.228m569.774-58.106c-4.688 0-15.722 5.76-32.86 16.698-17.14 11.327-36.523 23.73-58.302 37.306-21.582 13.77-49.756 26.17-84.325 37.207-34.718 11.232-69.387 16.796-104.298 16.796-34.961 0-69.629-5.563-104.248-16.795-34.668-11.037-62.793-23.438-84.375-37.207-21.728-13.576-41.114-25.979-58.252-37.306-17.138-10.938-28.272-16.698-32.813-16.698-31.689 0-60.938 5.274-87.109 15.625-26.316 10.351-48.584 24.12-66.845 41.404-18.263 17.581-34.375 38.673-48.391 62.989-14.109 24.804-25.194 49.804-33.688 75.683-8.303 26.173-15.139 54.199-20.753 84.375-5.37 30.274-9.035 58.593-10.841 84.765-1.806 25.977-2.685 53.029-2.685 80.274 0 62.304 18.946 112.793 57.08 148.928 37.843 35.837 88.379 55.663 151.465 55.663h682.91c63.086 0 113.576-19.826 151.513-55.663 37.989-36.135 57.032-85.938 57.032-148.243 0-27.344-.83-54.589-2.685-80.665-1.855-26.173-5.469-54.591-10.841-84.861-5.566-30.272-12.499-58.399-20.798-84.375-8.449-25.979-19.483-51.076-33.642-75.88-14.016-24.316-30.127-45.408-48.391-62.989-18.261-17.284-40.575-31.054-66.798-41.404-26.366-10.353-55.467-15.627-87.06-15.627z"/><g fill="#fff"><path d="M303.929 414.631c-16.953-34.638-25.576-73.766-25.576-116.293 0-37.12 6.689-72.015 19.882-103.716 13.189-31.691 33.258-61.105 59.649-87.424 52.836-52.35 117.473-78.895 192.116-78.895 74.593 0 139.23 26.544 192.116 78.895 26.391 26.319 46.46 55.732 59.649 87.424 13.193 31.701 19.882 66.596 19.882 103.716 0 42.539-8.633 81.652-25.656 116.25-9.767-13.826-21.142-27.283-33.812-40-58.424-57.938-129.812-87.316-212.18-87.316-82.301 0-153.706 29.377-212.229 87.316-12.51 12.557-23.896 26.03-33.841 40.043z"/><path d="M550 28.335c18.645 0 36.867 1.66 54.159 4.933 17.29 3.272 34.136 8.25 50.071 14.794 15.934 6.544 31.403 14.838 45.979 24.652 14.576 9.814 28.668 21.424 41.884 34.506 13.194 13.158 24.899 27.18 34.792 41.678 9.895 14.501 18.255 29.889 24.851 45.735 6.596 15.849 11.612 32.607 14.91 49.808 3.298 17.202 4.97 35.335 4.97 53.896 0 21.19-2.146 41.688-6.376 60.925-4.253 19.341-10.731 37.932-19.253 55.262-9.76-13.811-21.127-27.255-33.784-39.959-58.431-57.944-129.826-87.325-212.203-87.325-82.31 0-153.722 29.38-212.252 87.325-12.486 12.532-23.852 25.976-33.783 39.96-8.501-17.337-14.964-35.929-19.21-55.262-4.227-19.246-6.37-39.744-6.37-60.925 0-18.56 1.672-36.693 4.97-53.896 3.297-17.201 8.314-33.959 14.91-49.808 6.595-15.847 14.956-31.234 24.851-45.735 9.892-14.498 21.598-28.521 34.792-41.678 13.202-13.082 27.287-24.691 41.863-34.507 14.573-9.813 30.043-18.107 45.982-24.652 15.937-6.544 32.787-11.521 50.082-14.794 17.295-3.273 35.519-4.933 54.165-4.933m0-.064c-74.95 0-139.063 26.316-192.137 78.904-53.029 52.882-79.541 116.554-79.541 191.162 0 42.433 8.445 81.3 25.633 116.312 9.912-13.966 21.192-27.346 33.838-40.039 58.692-58.105 129.298-87.307 212.207-87.307 82.91 0 153.565 29.201 212.157 87.307 12.646 12.693 23.977 26.073 33.839 40.039 17.237-35.011 25.683-73.878 25.683-116.312 0-74.608-26.513-138.28-79.541-191.162-53.125-52.587-117.188-78.904-192.138-78.904z"/></g><linearGradient id="d" gradientUnits="userSpaceOnUse" x1="549.975" y1="596.486" x2="549.975"><stop offset="0" stop-color="#7A829F"/><stop offset="1" stop-color="#C1C7D7"/></linearGradient><path fill="url(#d)" d="M550 57.813c67.334 0 123.292 22.997 171.046 70.505 47.607 47.268 70.799 102.932 70.799 170.02 0 67.091-23.145 122.658-70.849 170.022-47.462 47.265-103.368 70.214-170.996 70.214-67.577 0-123.534-22.949-171.092-70.313-47.658-47.265-70.803-102.832-70.803-169.923 0-67.088 23.195-122.655 70.753-170.02 47.901-47.508 103.858-70.505 171.142-70.505m0-57.813c-82.909 0-153.515 29.298-212.207 87.403-58.495 58.25-87.793 128.562-87.793 210.935 0 82.326 29.298 152.638 87.793 210.841 58.692 58.399 129.298 87.307 212.207 87.307 82.91 0 153.565-28.908 212.157-87.307 58.545-58.203 87.793-128.515 87.793-210.841 0-82.373-29.248-152.685-87.793-210.935-58.592-58.105-129.247-87.403-212.157-87.403z"/></svg>