<svg xmlns="http://www.w3.org/2000/svg" width="1700" height="1860"><linearGradient id="a" gradientUnits="userSpaceOnUse" x1="850" y1="927.256" x2="850"><stop offset="0" stop-color="#C7CFD4"/><stop offset="1" stop-color="#F1F3FA"/></linearGradient><path fill="url(#a)" d="M850.01 0c-127.969 0-237.285 45.264-327.813 135.82-90.596 90.547-135.84 199.824-135.84 327.798 0 127.993 45.244 237.275 135.84 327.817 90.527 90.557 199.844 135.82 327.813 135.82 127.949 0 237.266-45.264 327.793-135.82 90.605-90.542 135.84-199.824 135.84-327.817 0-127.974-45.234-237.251-135.84-327.798-90.528-90.556-199.844-135.82-327.793-135.82z"/><linearGradient id="b" gradientUnits="userSpaceOnUse" x1="850" y1="1860" x2="850" y2="855.444"><stop offset="0" stop-color="#49C6E6"/><stop offset="1" stop-color="#75D0ED"/></linearGradient><path fill="url(#b)" d="M1695.83 1422.295c-2.871-40.635-8.477-84.482-16.895-131.592-8.477-47.07-19.16-90.742-32.041-131.006-12.881-40.225-30.156-79.473-51.895-117.705s-46.67-70.84-74.854-97.813c-28.184-26.948-62.646-48.481-103.252-64.57-40.684-16.099-85.527-24.165-134.619-24.165-7.275 0-24.17 8.657-50.752 25.972-26.523 17.319-56.514 36.636-89.932 57.949-33.408 21.318-76.895 40.635-130.381 57.949-53.555 17.324-107.275 25.947-161.201 25.947-53.945 0-107.656-8.623-161.23-25.947-53.477-17.314-96.963-36.631-130.371-57.949-33.407-21.313-63.407-40.63-89.93-57.949-26.582-17.314-43.477-25.972-50.752-25.972-49.092 0-94.014 8.066-134.619 24.165-40.684 16.089-75.078 37.622-103.262 64.57-28.184 26.973-53.105 59.58-74.844 97.813s-39.014 77.48-51.895 117.705c-12.881 40.264-23.564 83.936-32.041 131.006-8.408 47.109-14.102 90.957-16.895 131.592-2.802 40.664-4.169 82.334-4.169 124.971 0 96.582 29.316 172.861 88.105 228.809s136.817 83.925 234.249 83.925h1055.293c97.432 0 175.459-27.979 234.248-83.926 58.711-55.947 88.105-132.227 88.105-228.809 0-42.636-1.357-84.306-4.17-124.97z"/><path fill="#fff" d="M1565.186 1185.84c-11.035-34.512-26.104-68.643-44.756-101.445-17.559-30.879-37.607-57.207-59.59-78.242-19.971-19.102-45.4-34.854-75.557-46.816-26.318-10.41-55.879-16.387-87.988-17.793-4.229 2.441-10.381 6.162-18.955 11.748-26.104 17.041-55.762 36.162-90.605 58.389-39.912 25.469-89.014 47.471-150.088 67.236-61.826 20-124.941 30.127-187.637 30.127s-125.82-10.127-187.617-30.107c-61.113-19.785-110.215-41.787-150.137-67.256-35.283-22.52-64.941-41.641-90.684-58.447-8.525-5.557-14.648-9.268-18.877-11.689-32.139 1.406-61.689 7.373-87.979 17.793-30.137 11.924-55.547 27.676-75.586 46.836-21.953 21.016-42.002 47.344-59.561 78.223-18.633 32.764-33.701 66.904-44.775 101.465-11.67 36.465-21.533 76.855-29.316 120.059-3.281 18.428-6.016 36.172-8.389 53.428 2.627-4.912 5.137-9.873 7.91-14.756 21.738-38.223 46.66-70.83 74.844-97.803 28.184-26.953 62.578-48.486 103.262-64.58 40.605-16.094 85.527-24.16 134.619-24.16 7.275 0 24.17 8.652 50.752 25.977 26.523 17.314 56.523 36.631 89.932 57.949s76.895 40.635 130.371 57.949c53.574 17.324 107.285 25.947 161.23 25.947 53.926 0 107.646-8.623 161.201-25.947 53.486-17.314 96.973-36.631 130.381-57.949 33.418-21.318 63.408-40.635 89.932-57.949 26.582-17.324 43.477-25.977 50.752-25.977 49.092 0 93.936 8.066 134.619 24.16 40.605 16.094 75.068 37.627 103.252 64.58 28.184 26.973 53.115 59.58 74.854 97.803 2.764 4.873 5.264 9.814 7.881 14.717-2.383-17.393-5.117-35.176-8.379-53.516-7.764-43.079-17.627-83.47-29.316-119.954z"/><linearGradient id="c" gradientUnits="userSpaceOnUse" x1="850" y1="1860" x2="850" y2="855.444"><stop offset="0" stop-color="#39A7CE"/><stop offset="1" stop-color="#54BDEB"/></linearGradient><path fill="url(#c)" d="M1311.572 999.902c19.131 2.051 36.533 6.23 52.637 12.607 23.271 9.219 42.49 20.996 57.09 34.961 17.979 17.197 34.609 39.131 49.424 65.186 16.689 29.365 30.166 59.854 40 90.625 10.918 34.102 20.176 72.041 27.471 112.568 7.451 41.67 12.51 80.889 15.01 116.299 2.539 36.777 3.828 75.518 3.828 115.117 0 74.932-24.98 107.412-43.701 125.254-20.078 19.111-55.996 44.521-135.684 44.521h-1055.293c-79.688 0-115.596-25.41-135.684-44.521-18.76-17.861-43.701-50.273-43.701-125.254 0-39.473 1.289-78.223 3.828-115.146 2.393-34.756 7.441-73.896 14.961-116.064 7.354-40.732 16.602-78.672 27.51-112.744 9.863-30.82 23.32-61.318 40.01-90.654 14.814-26.055 31.445-47.988 49.385-65.146 14.883-14.229 33.545-25.664 57.129-35 15.859-6.289 33.486-10.498 52.695-12.578.596.381 1.191.771 1.816 1.191 25.928 16.914 55.752 36.152 91.201 58.76 44.072 28.125 97.461 52.148 163.311 73.477 67.471 21.797 136.523 32.861 205.195 32.861s137.715-11.064 205.244-32.891c65.781-21.299 119.18-45.322 163.232-73.438 35.02-22.344 64.854-41.563 91.064-58.682.694-.459 1.358-.889 2.022-1.309m-29.297-144.458c-7.275 0-24.17 8.657-50.752 25.972-26.523 17.319-56.514 36.636-89.932 57.949-33.408 21.318-76.895 40.635-130.381 57.949-53.555 17.324-107.275 25.947-161.201 25.947-53.945 0-107.656-8.623-161.23-25.947-53.477-17.314-96.963-36.631-130.371-57.949-33.408-21.313-63.408-40.63-89.931-57.949-26.582-17.314-43.477-25.972-50.752-25.972-49.092 0-94.014 8.066-134.619 24.165-40.684 16.089-75.078 37.622-103.262 64.57-28.184 26.973-53.105 59.58-74.844 97.813s-39.014 77.48-51.895 117.705c-12.881 40.264-23.564 83.936-32.041 131.006-8.408 47.109-14.102 90.957-16.895 131.592-2.802 40.664-4.169 82.334-4.169 124.971 0 96.582 29.316 172.861 88.105 228.809s136.817 83.925 234.249 83.925h1055.293c97.432 0 175.459-27.979 234.248-83.926 58.711-55.947 88.105-132.227 88.105-228.809 0-42.637-1.357-84.307-4.17-124.971-2.871-40.635-8.477-84.482-16.895-131.592-8.477-47.07-19.16-90.742-32.041-131.006-12.881-40.225-30.156-79.473-51.895-117.705s-46.67-70.84-74.854-97.813c-28.184-26.948-62.646-48.481-103.252-64.57-40.682-16.097-85.526-24.164-134.618-24.164z"/><g fill="#fff"><path d="M1230.247 643.539c-16.145-22.493-33.19-42.619-52.09-61.505-90.188-90.218-200.593-135.962-328.146-135.962-127.573 0-237.987 45.744-328.176 135.962-18.875 18.86-35.915 38.985-52.071 61.5-26.002-54.36-39.185-114.887-39.185-179.916 0-57.63 10.33-111.786 30.702-160.965 20.381-49.2 51.391-94.815 92.169-135.576 40.757-40.765 86.374-71.77 135.583-92.154 49.196-20.379 103.357-30.712 160.977-30.712 57.611 0 111.766 10.333 160.96 30.712 49.208 20.385 94.824 51.39 135.581 92.154 40.78 40.763 71.792 86.377 92.174 135.576 20.375 49.181 30.707 103.337 30.707 160.965 0 65.018-13.183 125.545-39.185 179.921z"/><path d="M850.01 44.711c57.545 0 111.636 10.32 160.769 30.674 49.147 20.36 94.709 51.329 135.419 92.046 40.733 40.716 71.708 86.276 92.066 135.414 20.35 49.12 30.668 103.212 30.668 160.773 0 64.64-13.043 124.831-38.772 178.942-16.015-22.238-32.923-42.167-51.649-60.88-90.286-90.315-200.809-136.108-328.5-136.108-127.71 0-238.244 45.793-328.529 136.108-18.702 18.688-35.604 38.616-51.63 60.875-12.743-26.793-22.461-55.252-28.891-84.616-6.557-29.943-9.882-61.678-9.882-94.321 0-57.563 10.317-111.655 30.664-160.774 20.355-49.139 51.33-94.698 92.061-135.413 40.711-40.718 86.273-71.687 135.421-92.046 49.134-20.354 103.231-30.674 160.785-30.674m0-1c-115.898 0-214.912 40.996-296.914 123.013-82.051 82.016-123.018 180.986-123.018 296.894 0 65.757 13.213 126.04 39.6 180.894 15.43-21.572 32.725-42.354 52.51-62.124 90.527-90.557 199.854-135.815 327.822-135.815 127.939 0 237.266 45.259 327.793 135.815 19.785 19.771 37.1 40.562 52.529 62.129 26.377-54.849 39.6-115.137 39.6-180.898 0-115.908-40.977-214.878-123.027-296.895-82.003-82.017-181.016-123.013-296.895-123.013z"/></g><linearGradient id="d" gradientUnits="userSpaceOnUse" x1="850" y1="927.256" x2="850"><stop offset="0" stop-color="#7A82A0"/><stop offset="1" stop-color="#C1C7D7"/></linearGradient><path fill="url(#d)" d="M850.01 142.964c90.586 0 162.617 29.844 226.738 93.975 64.072 64.043 93.926 136.064 93.926 226.68 0 90.63-29.854 162.661-93.984 226.743-64.063 64.087-136.094 93.931-226.68 93.931-90.605 0-162.637-29.844-226.738-93.975-64.092-64.043-93.945-136.079-93.945-226.699 0-90.605 29.854-162.632 93.984-226.724 64.062-64.087 136.093-93.931 226.699-93.931m0-142.964c-127.969 0-237.285 45.264-327.813 135.82-90.596 90.547-135.84 199.824-135.84 327.798 0 127.993 45.244 237.275 135.84 327.817 90.527 90.557 199.844 135.82 327.813 135.82 127.949 0 237.266-45.264 327.793-135.82 90.605-90.542 135.84-199.824 135.84-327.817 0-127.974-45.234-237.251-135.84-327.798-90.528-90.556-199.844-135.82-327.793-135.82z"/></svg>