<svg xmlns="http://www.w3.org/2000/svg" viewBox="0 0 1800 1800"><path fill="#4A494A" d="M1584.033 455.42c0 19.824-1.855 39.6-5.469 61.182-52.197 268.213-455.371 995.41-799.17 995.41-167.383 0-223.193-288.037-255.566-414.014-19.824-77.393-39.648-156.592-66.602-233.984-14.404-41.357-25.244-86.426-41.455-125.977-14.404-34.229-34.18-72.021-77.344-72.021l-120.654 25.195c-48.584 0-46.777-32.373-73.779-59.424v-8.984c113.428-88.233 306.006-296.973 453.613-296.973 239.355 0 149.414 574.17 286.133 716.357 16.26 18.018 37.842 34.229 64.893 34.229 97.168 0 203.369-264.648 203.369-351.025 0-118.799-84.57-122.412-180.029-115.186 55.811-169.238 226.855-322.217 410.4-322.217 111.621 0 201.66 43.213 201.66 167.432zm215.967-296.973c0-86.426-72.021-158.447-158.447-158.447h-1483.155c-86.377 0-158.398 72.021-158.398 158.447v1483.154c0 86.426 72.021 158.399 158.398 158.399h1483.154c86.426 0 158.447-71.973 158.447-158.398v-1483.155z"/></svg>